<svg xmlns="http://www.w3.org/2000/svg" viewBox="0 -0.5 256 256" shape-rendering="crispEdges">
<metadata>Made with Pixels to Svg https://codepen.io/shshaw/pen/XbxvNj</metadata>
<path stroke="#000000" d="M32 0h48M224 0h32M32 1h48M224 1h32M32 2h48M224 2h32M32 3h48M224 3h32M32 4h48M224 4h32M32 5h48M224 5h32M32 6h48M224 6h32M32 7h48M224 7h32M32 8h48M224 8h32M32 9h48M224 9h32M32 10h48M224 10h32M32 11h48M224 11h32M32 12h48M224 12h32M32 13h48M224 13h32M32 14h48M224 14h32M32 15h48M224 15h32M32 16h16M80 16h16M208 16h16M240 16h16M32 17h16M80 17h16M208 17h16M240 17h16M32 18h16M80 18h16M208 18h16M240 18h16M32 19h16M80 19h16M208 19h16M240 19h16M32 20h16M80 20h16M208 20h16M240 20h16M32 21h16M80 21h16M208 21h16M240 21h16M32 22h16M80 22h16M208 22h16M240 22h16M32 23h16M80 23h16M208 23h16M240 23h16M32 24h16M80 24h16M208 24h16M240 24h16M32 25h16M80 25h16M208 25h16M240 25h16M32 26h16M80 26h16M208 26h16M240 26h16M32 27h16M80 27h16M208 27h16M240 27h16M32 28h16M80 28h16M208 28h16M240 28h16M32 29h16M80 29h16M208 29h16M240 29h16M32 30h16M80 30h16M208 30h16M240 30h16M32 31h16M80 31h16M208 31h16M240 31h16M0 32h32M48 32h16M80 32h16M192 32h16M224 32h16M0 33h32M48 33h16M80 33h16M192 33h16M224 33h16M0 34h32M48 34h16M80 34h16M192 34h16M224 34h16M0 35h32M48 35h16M80 35h16M192 35h16M224 35h16M0 36h32M48 36h16M80 36h16M192 36h16M224 36h16M0 37h32M48 37h16M80 37h16M192 37h16M224 37h16M0 38h32M48 38h16M80 38h16M192 38h16M224 38h16M0 39h32M48 39h16M80 39h16M192 39h16M224 39h16M0 40h32M48 40h16M80 40h16M192 40h16M224 40h16M0 41h32M48 41h16M80 41h16M192 41h16M224 41h16M0 42h32M48 42h16M80 42h16M192 42h16M224 42h16M0 43h32M48 43h16M80 43h16M192 43h16M224 43h16M0 44h32M48 44h16M80 44h16M192 44h16M224 44h16M0 45h32M48 45h16M80 45h16M192 45h16M224 45h16M0 46h32M48 46h16M80 46h16M192 46h16M224 46h16M0 47h32M48 47h16M80 47h16M192 47h16M224 47h16M0 48h16M32 48h16M80 48h16M176 48h16M208 48h16M0 49h16M32 49h16M80 49h16M176 49h16M208 49h16M0 50h16M32 50h16M80 50h16M176 50h16M208 50h16M0 51h16M32 51h16M80 51h16M176 51h16M208 51h16M0 52h16M32 52h16M80 52h16M176 52h16M208 52h16M0 53h16M32 53h16M80 53h16M176 53h16M208 53h16M0 54h16M32 54h16M80 54h16M176 54h16M208 54h16M0 55h16M32 55h16M80 55h16M176 55h16M208 55h16M0 56h16M32 56h16M80 56h16M176 56h16M208 56h16M0 57h16M32 57h16M80 57h16M176 57h16M208 57h16M0 58h16M32 58h16M80 58h16M176 58h16M208 58h16M0 59h16M32 59h16M80 59h16M176 59h16M208 59h16M0 60h16M32 60h16M80 60h16M176 60h16M208 60h16M0 61h16M32 61h16M80 61h16M176 61h16M208 61h16M0 62h16M32 62h16M80 62h16M176 62h16M208 62h16M0 63h16M32 63h16M80 63h16M176 63h16M208 63h16M0 64h16M96 64h16M160 64h16M192 64h16M0 65h16M96 65h16M160 65h16M192 65h16M0 66h16M96 66h16M160 66h16M192 66h16M0 67h16M96 67h16M160 67h16M192 67h16M0 68h16M96 68h16M160 68h16M192 68h16M0 69h16M96 69h16M160 69h16M192 69h16M0 70h16M96 70h16M160 70h16M192 70h16M0 71h16M96 71h16M160 71h16M192 71h16M0 72h16M96 72h16M160 72h16M192 72h16M0 73h16M96 73h16M160 73h16M192 73h16M0 74h16M96 74h16M160 74h16M192 74h16M0 75h16M96 75h16M160 75h16M192 75h16M0 76h16M96 76h16M160 76h16M192 76h16M0 77h16M96 77h16M160 77h16M192 77h16M0 78h16M96 78h16M160 78h16M192 78h16M0 79h16M96 79h16M160 79h16M192 79h16M16 80h48M176 80h16M16 81h48M176 81h16M16 82h48M176 82h16M16 83h48M176 83h16M16 84h48M176 84h16M16 85h48M176 85h16M16 86h48M176 86h16M16 87h48M176 87h16M16 88h48M176 88h16M16 89h48M176 89h16M16 90h48M176 90h16M16 91h48M176 91h16M16 92h48M176 92h16M16 93h48M176 93h16M16 94h48M176 94h16M16 95h48M176 95h16M64 96h16M64 97h16M64 98h16M64 99h16M64 100h16M64 101h16M64 102h16M64 103h16M64 104h16M64 105h16M64 106h16M64 107h16M64 108h16M64 109h16M64 110h16M64 111h16M64 144h16M112 144h16M176 144h16M64 145h16M112 145h16M176 145h16M64 146h16M112 146h16M176 146h16M64 147h16M112 147h16M176 147h16M64 148h16M112 148h16M176 148h16M64 149h16M112 149h16M176 149h16M64 150h16M112 150h16M176 150h16M64 151h16M112 151h16M176 151h16M64 152h16M112 152h16M176 152h16M64 153h16M112 153h16M176 153h16M64 154h16M112 154h16M176 154h16M64 155h16M112 155h16M176 155h16M64 156h16M112 156h16M176 156h16M64 157h16M112 157h16M176 157h16M64 158h16M112 158h16M176 158h16M64 159h16M112 159h16M176 159h16M48 160h16M192 160h48M48 161h16M192 161h48M48 162h16M192 162h48M48 163h16M192 163h48M48 164h16M192 164h48M48 165h16M192 165h48M48 166h16M192 166h48M48 167h16M192 167h48M48 168h16M192 168h48M48 169h16M192 169h48M48 170h16M192 170h48M48 171h16M192 171h48M48 172h16M192 172h48M48 173h16M192 173h48M48 174h16M192 174h48M48 175h16M192 175h48M32 176h16M96 176h16M144 176h16M240 176h16M32 177h16M96 177h16M144 177h16M240 177h16M32 178h16M96 178h16M144 178h16M240 178h16M32 179h16M96 179h16M144 179h16M240 179h16M32 180h16M96 180h16M144 180h16M240 180h16M32 181h16M96 181h16M144 181h16M240 181h16M32 182h16M96 182h16M144 182h16M240 182h16M32 183h16M96 183h16M144 183h16M240 183h16M32 184h16M96 184h16M144 184h16M240 184h16M32 185h16M96 185h16M144 185h16M240 185h16M32 186h16M96 186h16M144 186h16M240 186h16M32 187h16M96 187h16M144 187h16M240 187h16M32 188h16M96 188h16M144 188h16M240 188h16M32 189h16M96 189h16M144 189h16M240 189h16M32 190h16M96 190h16M144 190h16M240 190h16M32 191h16M96 191h16M144 191h16M240 191h16M16 192h16M80 192h16M160 192h16M208 192h16M240 192h16M16 193h16M80 193h16M160 193h16M208 193h16M240 193h16M16 194h16M80 194h16M160 194h16M208 194h16M240 194h16M16 195h16M80 195h16M160 195h16M208 195h16M240 195h16M16 196h16M80 196h16M160 196h16M208 196h16M240 196h16M16 197h16M80 197h16M160 197h16M208 197h16M240 197h16M16 198h16M80 198h16M160 198h16M208 198h16M240 198h16M16 199h16M80 199h16M160 199h16M208 199h16M240 199h16M16 200h16M80 200h16M160 200h16M208 200h16M240 200h16M16 201h16M80 201h16M160 201h16M208 201h16M240 201h16M16 202h16M80 202h16M160 202h16M208 202h16M240 202h16M16 203h16M80 203h16M160 203h16M208 203h16M240 203h16M16 204h16M80 204h16M160 204h16M208 204h16M240 204h16M16 205h16M80 205h16M160 205h16M208 205h16M240 205h16M16 206h16M80 206h16M160 206h16M208 206h16M240 206h16M16 207h16M80 207h16M160 207h16M208 207h16M240 207h16M0 208h16M64 208h16M160 208h16M192 208h16M224 208h32M0 209h16M64 209h16M160 209h16M192 209h16M224 209h32M0 210h16M64 210h16M160 210h16M192 210h16M224 210h32M0 211h16M64 211h16M160 211h16M192 211h16M224 211h32M0 212h16M64 212h16M160 212h16M192 212h16M224 212h32M0 213h16M64 213h16M160 213h16M192 213h16M224 213h32M0 214h16M64 214h16M160 214h16M192 214h16M224 214h32M0 215h16M64 215h16M160 215h16M192 215h16M224 215h32M0 216h16M64 216h16M160 216h16M192 216h16M224 216h32M0 217h16M64 217h16M160 217h16M192 217h16M224 217h32M0 218h16M64 218h16M160 218h16M192 218h16M224 218h32M0 219h16M64 219h16M160 219h16M192 219h16M224 219h32M0 220h16M64 220h16M160 220h16M192 220h16M224 220h32M0 221h16M64 221h16M160 221h16M192 221h16M224 221h32M0 222h16M64 222h16M160 222h16M192 222h16M224 222h32M0 223h16M64 223h16M160 223h16M192 223h16M224 223h32M0 224h16M48 224h16M160 224h16M208 224h16M0 225h16M48 225h16M160 225h16M208 225h16M0 226h16M48 226h16M160 226h16M208 226h16M0 227h16M48 227h16M160 227h16M208 227h16M0 228h16M48 228h16M160 228h16M208 228h16M0 229h16M48 229h16M160 229h16M208 229h16M0 230h16M48 230h16M160 230h16M208 230h16M0 231h16M48 231h16M160 231h16M208 231h16M0 232h16M48 232h16M160 232h16M208 232h16M0 233h16M48 233h16M160 233h16M208 233h16M0 234h16M48 234h16M160 234h16M208 234h16M0 235h16M48 235h16M160 235h16M208 235h16M0 236h16M48 236h16M160 236h16M208 236h16M0 237h16M48 237h16M160 237h16M208 237h16M0 238h16M48 238h16M160 238h16M208 238h16M0 239h16M48 239h16M160 239h16M208 239h16M16 240h32M176 240h48M16 241h32M176 241h48M16 242h32M176 242h48M16 243h32M176 243h48M16 244h32M176 244h48M16 245h32M176 245h48M16 246h32M176 246h48M16 247h32M176 247h48M16 248h32M176 248h48M16 249h32M176 249h48M16 250h32M176 250h48M16 251h32M176 251h48M16 252h32M176 252h48M16 253h32M176 253h48M16 254h32M176 254h48M16 255h32M176 255h48" />
<path stroke="#545466" d="M48 16h16M48 17h16M48 18h16M48 19h16M48 20h16M48 21h16M48 22h16M48 23h16M48 24h16M48 25h16M48 26h16M48 27h16M48 28h16M48 29h16M48 30h16M48 31h16M16 48h16M16 49h16M16 50h16M16 51h16M16 52h16M16 53h16M16 54h16M16 55h16M16 56h16M16 57h16M16 58h16M16 59h16M16 60h16M16 61h16M16 62h16M16 63h16M16 64h48M16 65h48M16 66h48M16 67h48M16 68h48M16 69h48M16 70h48M16 71h48M16 72h48M16 73h48M16 74h48M16 75h48M16 76h48M16 77h48M16 78h48M16 79h48M64 80h16M64 81h16M64 82h16M64 83h16M64 84h16M64 85h16M64 86h16M64 87h16M64 88h16M64 89h16M64 90h16M64 91h16M64 92h16M64 93h16M64 94h16M64 95h16M112 128h16M112 129h16M112 130h16M112 131h16M112 132h16M112 133h16M112 134h16M112 135h16M112 136h16M112 137h16M112 138h16M112 139h16M112 140h16M112 141h16M112 142h16M112 143h16M128 144h16M128 145h16M128 146h16M128 147h16M128 148h16M128 149h16M128 150h16M128 151h16M128 152h16M128 153h16M128 154h16M128 155h16M128 156h16M128 157h16M128 158h16M128 159h16M160 176h16M160 177h16M160 178h16M160 179h16M160 180h16M160 181h16M160 182h16M160 183h16M160 184h16M160 185h16M160 186h16M160 187h16M160 188h16M160 189h16M160 190h16M160 191h16M224 192h16M224 193h16M224 194h16M224 195h16M224 196h16M224 197h16M224 198h16M224 199h16M224 200h16M224 201h16M224 202h16M224 203h16M224 204h16M224 205h16M224 206h16M224 207h16M176 208h16M176 209h16M176 210h16M176 211h16M176 212h16M176 213h16M176 214h16M176 215h16M176 216h16M176 217h16M176 218h16M176 219h16M176 220h16M176 221h16M176 222h16M176 223h16M176 224h32M176 225h32M176 226h32M176 227h32M176 228h32M176 229h32M176 230h32M176 231h32M176 232h32M176 233h32M176 234h32M176 235h32M176 236h32M176 237h32M176 238h32M176 239h32" />
<path stroke="#9d9d9d" d="M64 16h16M224 16h16M64 17h16M224 17h16M64 18h16M224 18h16M64 19h16M224 19h16M64 20h16M224 20h16M64 21h16M224 21h16M64 22h16M224 22h16M64 23h16M224 23h16M64 24h16M224 24h16M64 25h16M224 25h16M64 26h16M224 26h16M64 27h16M224 27h16M64 28h16M224 28h16M64 29h16M224 29h16M64 30h16M224 30h16M64 31h16M224 31h16M64 32h16M208 32h16M64 33h16M208 33h16M64 34h16M208 34h16M64 35h16M208 35h16M64 36h16M208 36h16M64 37h16M208 37h16M64 38h16M208 38h16M64 39h16M208 39h16M64 40h16M208 40h16M64 41h16M208 41h16M64 42h16M208 42h16M64 43h16M208 43h16M64 44h16M208 44h16M64 45h16M208 45h16M64 46h16M208 46h16M64 47h16M208 47h16M48 48h32M192 48h16M48 49h32M192 49h16M48 50h32M192 50h16M48 51h32M192 51h16M48 52h32M192 52h16M48 53h32M192 53h16M48 54h32M192 54h16M48 55h32M192 55h16M48 56h32M192 56h16M48 57h32M192 57h16M48 58h32M192 58h16M48 59h32M192 59h16M48 60h32M192 60h16M48 61h32M192 61h16M48 62h32M192 62h16M48 63h32M192 63h16M64 64h32M176 64h16M64 65h32M176 65h16M64 66h32M176 66h16M64 67h32M176 67h16M64 68h32M176 68h16M64 69h32M176 69h16M64 70h32M176 70h16M64 71h32M176 71h16M64 72h32M176 72h16M64 73h32M176 73h16M64 74h32M176 74h16M64 75h32M176 75h16M64 76h32M176 76h16M64 77h32M176 77h16M64 78h32M176 78h16M64 79h32M176 79h16M80 80h16M160 80h16M80 81h16M160 81h16M80 82h16M160 82h16M80 83h16M160 83h16M80 84h16M160 84h16M80 85h16M160 85h16M80 86h16M160 86h16M80 87h16M160 87h16M80 88h16M160 88h16M80 89h16M160 89h16M80 90h16M160 90h16M80 91h16M160 91h16M80 92h16M160 92h16M80 93h16M160 93h16M80 94h16M160 94h16M80 95h16M160 95h16M96 96h16M144 96h16M96 97h16M144 97h16M96 98h16M144 98h16M96 99h16M144 99h16M96 100h16M144 100h16M96 101h16M144 101h16M96 102h16M144 102h16M96 103h16M144 103h16M96 104h16M144 104h16M96 105h16M144 105h16M96 106h16M144 106h16M96 107h16M144 107h16M96 108h16M144 108h16M96 109h16M144 109h16M96 110h16M144 110h16M96 111h16M144 111h16M128 128h16M128 129h16M128 130h16M128 131h16M128 132h16M128 133h16M128 134h16M128 135h16M128 136h16M128 137h16M128 138h16M128 139h16M128 140h16M128 141h16M128 142h16M128 143h16M160 160h32M160 161h32M160 162h32M160 163h32M160 164h32M160 165h32M160 166h32M160 167h32M160 168h32M160 169h32M160 170h32M160 171h32M160 172h32M160 173h32M160 174h32M160 175h32M176 176h64M176 177h64M176 178h64M176 179h64M176 180h64M176 181h64M176 182h64M176 183h64M176 184h64M176 185h64M176 186h64M176 187h64M176 188h64M176 189h64M176 190h64M176 191h64M176 192h32M176 193h32M176 194h32M176 195h32M176 196h32M176 197h32M176 198h32M176 199h32M176 200h32M176 201h32M176 202h32M176 203h32M176 204h32M176 205h32M176 206h32M176 207h32" />
<path stroke="#f68e56" d="M96 80h64M96 81h64M96 82h64M96 83h64M96 84h64M96 85h64M96 86h64M96 87h64M96 88h64M96 89h64M96 90h64M96 91h64M96 92h64M96 93h64M96 94h64M96 95h64M80 96h16M112 96h32M160 96h16M80 97h16M112 97h32M160 97h16M80 98h16M112 98h32M160 98h16M80 99h16M112 99h32M160 99h16M80 100h16M112 100h32M160 100h16M80 101h16M112 101h32M160 101h16M80 102h16M112 102h32M160 102h16M80 103h16M112 103h32M160 103h16M80 104h16M112 104h32M160 104h16M80 105h16M112 105h32M160 105h16M80 106h16M112 106h32M160 106h16M80 107h16M112 107h32M160 107h16M80 108h16M112 108h32M160 108h16M80 109h16M112 109h32M160 109h16M80 110h16M112 110h32M160 110h16M80 111h16M112 111h32M160 111h16M80 112h96M80 113h96M80 114h96M80 115h96M80 116h96M80 117h96M80 118h96M80 119h96M80 120h96M80 121h96M80 122h96M80 123h96M80 124h96M80 125h96M80 126h96M80 127h96M80 128h32M144 128h32M80 129h32M144 129h32M80 130h32M144 130h32M80 131h32M144 131h32M80 132h32M144 132h32M80 133h32M144 133h32M80 134h32M144 134h32M80 135h32M144 135h32M80 136h32M144 136h32M80 137h32M144 137h32M80 138h32M144 138h32M80 139h32M144 139h32M80 140h32M144 140h32M80 141h32M144 141h32M80 142h32M144 142h32M80 143h32M144 143h32M80 144h32M144 144h32M80 145h32M144 145h32M80 146h32M144 146h32M80 147h32M144 147h32M80 148h32M144 148h32M80 149h32M144 149h32M80 150h32M144 150h32M80 151h32M144 151h32M80 152h32M144 152h32M80 153h32M144 153h32M80 154h32M144 154h32M80 155h32M144 155h32M80 156h32M144 156h32M80 157h32M144 157h32M80 158h32M144 158h32M80 159h32M144 159h32M96 160h64M96 161h64M96 162h64M96 163h64M96 164h64M96 165h64M96 166h64M96 167h64M96 168h64M96 169h64M96 170h64M96 171h64M96 172h64M96 173h64M96 174h64M96 175h64" />
<path stroke="#8f5232" d="M64 160h32M64 161h32M64 162h32M64 163h32M64 164h32M64 165h32M64 166h32M64 167h32M64 168h32M64 169h32M64 170h32M64 171h32M64 172h32M64 173h32M64 174h32M64 175h32M48 176h48M48 177h48M48 178h48M48 179h48M48 180h48M48 181h48M48 182h48M48 183h48M48 184h48M48 185h48M48 186h48M48 187h48M48 188h48M48 189h48M48 190h48M48 191h48M32 192h48M32 193h48M32 194h48M32 195h48M32 196h48M32 197h48M32 198h48M32 199h48M32 200h48M32 201h48M32 202h48M32 203h48M32 204h48M32 205h48M32 206h48M32 207h48M32 208h32M32 209h32M32 210h32M32 211h32M32 212h32M32 213h32M32 214h32M32 215h32M32 216h32M32 217h32M32 218h32M32 219h32M32 220h32M32 221h32M32 222h32M32 223h32" />
<path stroke="#805c38" d="M16 208h16M16 209h16M16 210h16M16 211h16M16 212h16M16 213h16M16 214h16M16 215h16M16 216h16M16 217h16M16 218h16M16 219h16M16 220h16M16 221h16M16 222h16M16 223h16M16 224h32M16 225h32M16 226h32M16 227h32M16 228h32M16 229h32M16 230h32M16 231h32M16 232h32M16 233h32M16 234h32M16 235h32M16 236h32M16 237h32M16 238h32M16 239h32" />
</svg>